<svg width="13" height="10" viewBox="0 0 13 10" fill="none" xmlns="http://www.w3.org/2000/svg">
<path d="M7.72017 1.29871C7.64649 1.23005 7.58738 1.14725 7.54639 1.05525C7.5054 0.963247 7.48336 0.863934 7.48158 0.763231C7.4798 0.662528 7.49833 0.562499 7.53605 0.46911C7.57377 0.375722 7.62991 0.290888 7.70113 0.21967C7.77235 0.148451 7.85719 0.0923064 7.95057 0.0545854C8.04396 0.0168643 8.14399 -0.00166006 8.24469 0.000116722C8.3454 0.00189351 8.44471 0.023935 8.53671 0.064927C8.62871 0.105919 8.71151 0.165021 8.78017 0.238708L12.7802 4.23871C12.9206 4.37933 12.9995 4.56996 12.9995 4.76871C12.9995 4.96746 12.9206 5.15808 12.7802 5.29871L8.78017 9.29871C8.71151 9.3724 8.62871 9.4315 8.53671 9.47249C8.44471 9.51348 8.3454 9.53552 8.24469 9.5373C8.14399 9.53908 8.04396 9.52055 7.95057 9.48283C7.85719 9.44511 7.77235 9.38896 7.70113 9.31775C7.62991 9.24653 7.57377 9.16169 7.53605 9.06831C7.49833 8.97492 7.4798 8.87489 7.48158 8.77419C7.48336 8.67348 7.5054 8.57417 7.54639 8.48217C7.58738 8.39017 7.64649 8.30737 7.72017 8.23871L10.4402 5.51871H0.750172C0.551259 5.51871 0.360494 5.43969 0.219841 5.29904C0.0791883 5.15839 0.000171661 4.96762 0.000171661 4.76871C0.000171661 4.5698 0.0791883 4.37903 0.219841 4.23838C0.360494 4.09773 0.551259 4.01871 0.750172 4.01871H10.4402L7.72017 1.29871Z" fill="#1A5186"/>
</svg>
