<svg width="19" height="19" viewBox="0 0 19 19" fill="none" xmlns="http://www.w3.org/2000/svg">
<path d="M4.12 8.29C5.56 11.12 7.88 13.44 10.71 14.88L12.91 12.68C13.19 12.4 13.58 12.32 13.93 12.43C15.05 12.8 16.25 13 17.5 13C17.7652 13 18.0196 13.1054 18.2071 13.2929C18.3946 13.4804 18.5 13.7348 18.5 14V17.5C18.5 17.7652 18.3946 18.0196 18.2071 18.2071C18.0196 18.3946 17.7652 18.5 17.5 18.5C12.9913 18.5 8.6673 16.7089 5.47918 13.5208C2.29107 10.3327 0.5 6.00868 0.5 1.5C0.5 1.23478 0.605357 0.98043 0.792893 0.792893C0.98043 0.605357 1.23478 0.5 1.5 0.5H5C5.26522 0.5 5.51957 0.605357 5.70711 0.792893C5.89464 0.98043 6 1.23478 6 1.5C6 2.75 6.2 3.95 6.57 5.07C6.68 5.42 6.6 5.81 6.32 6.09L4.12 8.29Z" fill="#1A5186"/>
</svg>
