<svg width="24" height="24" viewBox="0 0 24 24" fill="none" xmlns="http://www.w3.org/2000/svg">
<path d="M0.100098 11.8919C0.0995154 13.9876 1.13586 16.7418 2.18177 18.5455L1.09086 22.9091L5.4545 21.8182C7.20666 22.7677 10.0503 23.7935 12.0453 23.7937H12.0505C18.6363 23.7937 23.9973 18.4587 24.0001 11.9012C24.0013 8.7237 22.7594 5.73575 20.5031 3.48778C18.2472 1.24 15.2468 0.00145018 12.05 0C5.46349 0 0.102817 5.33473 0.100098 11.8919Z" fill="url(#paint0_linear_60_23)"/>
<path d="M9.30507 6.55746C9.06545 6.0274 8.81328 6.0167 8.58541 6.00741C8.39881 5.99941 8.1855 6.00001 7.9724 6.00001C7.75909 6.00001 7.41251 6.07987 7.11957 6.39823C6.82632 6.71689 6 7.48695 6 9.05315C6 10.6193 7.14618 12.1331 7.30596 12.3457C7.46594 12.5579 9.51868 15.8748 12.7697 17.1508C15.4716 18.2113 16.0215 18.0004 16.6079 17.9472C17.1944 17.8942 18.5003 17.1773 18.7667 16.434C19.0334 15.6907 19.0334 15.0536 18.9534 14.9204C18.8735 14.7878 18.6602 14.7081 18.3403 14.549C18.0205 14.3899 16.4479 13.6196 16.1547 13.5134C15.8615 13.4072 15.6483 13.3542 15.435 13.673C15.2217 13.9912 14.6091 14.7081 14.4225 14.9204C14.236 15.1332 14.0493 15.1597 13.7295 15.0005C13.4094 14.8408 12.3794 14.505 11.1573 13.4206C10.2064 12.5768 9.56447 11.5347 9.37788 11.216C9.19128 10.8977 9.35789 10.7252 9.51828 10.5666C9.66199 10.4239 9.83824 10.1948 9.99832 10.009C10.1578 9.8231 10.211 9.69046 10.3177 9.47816C10.4244 9.26565 10.371 9.07974 10.2912 8.92051C10.211 8.76128 9.58948 7.18688 9.30507 6.55746Z" fill="white"/>
<defs>
<linearGradient id="paint0_linear_60_23" x1="1200" y1="2400" x2="1200" y2="0" gradientUnits="userSpaceOnUse">
<stop offset="1" stop-color="#4179AF"/>
</linearGradient>
</defs>
</svg>
