<svg width="192" height="228" viewBox="0 0 192 228" fill="none" xmlns="http://www.w3.org/2000/svg">
<path d="M0.802572 3.01907C0.26118 3.12821 -0.0892261 3.65558 0.0199191 4.19697C0.129064 4.73836 0.656429 5.08877 1.19782 4.97962L0.802572 3.01907ZM53.0002 6.49961L52.5406 7.38776L53.0002 6.49961ZM86.499 68.0006L87.499 68.0006L86.499 68.0006ZM15.9986 79.5028L15.0064 79.627L15.9986 79.5028ZM165.499 79.5026L166.106 78.7085L165.499 79.5026ZM178.999 156.503L179.851 157.026L178.999 156.503ZM31.4984 225.502L42.7778 227.973L39.2785 216.969L31.4984 225.502ZM5.49015 4.24844C6.03618 4.16553 6.41161 3.65568 6.3287 3.10965C6.24578 2.56363 5.73593 2.1882 5.1899 2.27111L5.49015 4.24844ZM13.9811 1.1957C13.4312 1.24711 13.0271 1.73456 13.0785 2.28445C13.1299 2.83433 13.6174 3.23842 14.1673 3.18701L13.9811 1.1957ZM22.8955 2.63837C23.4475 2.6216 23.8815 2.1605 23.8647 1.60847C23.8479 1.05644 23.3868 0.622523 22.8348 0.639287L22.8955 2.63837ZM31.7226 0.708861C31.171 0.68129 30.7015 1.1061 30.674 1.65769C30.6464 2.20929 31.0712 2.6788 31.6228 2.70637L31.7226 0.708861ZM40.2686 3.60048C40.8135 3.69054 41.3282 3.32184 41.4183 2.77695C41.5084 2.23206 41.1397 1.71732 40.5948 1.62725L40.2686 3.60048ZM49.3001 3.81577C48.7801 3.62965 48.2077 3.90029 48.0216 4.42027C47.8355 4.94025 48.1061 5.51265 48.6261 5.69877L49.3001 3.81577ZM55.8073 9.15048C56.2884 9.4216 56.8983 9.25134 57.1694 8.77018C57.4405 8.28903 57.2702 7.67919 56.7891 7.40806L55.8073 9.15048ZM63.2145 11.4012C62.7598 11.0877 62.1371 11.2022 61.8236 11.657C61.5102 12.1117 61.6247 12.7344 62.0794 13.0479L63.2145 11.4012ZM67.8818 17.5594C68.2958 17.925 68.9277 17.8858 69.2933 17.4718C69.6589 17.0579 69.6197 16.4259 69.2058 16.0603L67.8818 17.5594ZM74.54 21.5042C74.1845 21.0815 73.5537 21.0271 73.131 21.3825C72.7083 21.738 72.6539 22.3688 73.0093 22.7915L74.54 21.5042ZM77.2459 28.7448C77.5285 29.2193 78.1423 29.3749 78.6168 29.0923C79.0913 28.8097 79.2468 28.1959 78.9642 27.7214L77.2459 28.7448ZM82.3404 34.5583C82.1338 34.0461 81.5512 33.7983 81.039 34.0048C80.5267 34.2114 80.2789 34.794 80.4855 35.3062L82.3404 34.5583ZM82.7696 42.2853C82.9085 42.8198 83.4544 43.1406 83.989 43.0017C84.5235 42.8628 84.8442 42.3169 84.7053 41.7823L82.7696 42.2853ZM86.2235 49.202C86.1388 48.6562 85.6277 48.2825 85.0819 48.3672C84.5362 48.4519 84.1624 48.963 84.2471 49.5087L86.2235 49.202ZM85.0928 56.8648C85.1362 57.4154 85.6177 57.8265 86.1683 57.7831C86.7189 57.7397 87.13 57.2582 87.0866 56.7076L85.0928 56.8648ZM87.4575 64.2301C87.445 63.6779 86.9873 63.2404 86.4352 63.2529C85.883 63.2654 85.4455 63.7231 85.458 64.2752L87.4575 64.2301ZM85.3518 71.9101C85.3097 72.4608 85.722 72.9414 86.2727 72.9834C86.8234 73.0255 87.3039 72.6133 87.346 72.0626L85.3518 71.9101ZM86.0559 80.0821C86.1907 79.5465 85.8658 79.0031 85.3302 78.8683C84.7946 78.7335 84.2511 79.0585 84.1164 79.5941L86.0559 80.0821ZM81.5287 86.9005C81.2948 87.4008 81.5107 87.996 82.011 88.2299C82.5114 88.4638 83.1065 88.2478 83.3404 87.7475L81.5287 86.9005ZM79.1613 94.7391C79.4918 94.2967 79.4011 93.67 78.9587 93.3395C78.5162 93.009 77.8896 93.0997 77.5591 93.5421L79.1613 94.7391ZM72.3056 99.2255C71.8904 99.5897 71.849 100.222 72.2132 100.637C72.5774 101.052 73.2092 101.093 73.6244 100.729L72.3056 99.2255ZM66.9716 105.438C67.453 105.167 67.6238 104.558 67.3532 104.076C67.0825 103.595 66.4728 103.424 65.9914 103.695L66.9716 105.438ZM58.8918 106.771C58.3651 106.937 58.0726 107.498 58.2387 108.025C58.4047 108.552 58.9663 108.844 59.493 108.678L58.8918 106.771ZM51.4996 110.302C52.0495 110.25 52.4532 109.762 52.4013 109.212C52.3494 108.662 51.8616 108.259 51.3118 108.31L51.4996 110.302ZM43.5953 108.183C43.0477 108.111 42.5457 108.497 42.4741 109.045C42.4025 109.593 42.7883 110.095 43.336 110.166L43.5953 108.183ZM35.4083 108.137C35.9222 108.339 36.5027 108.087 36.7049 107.573C36.907 107.059 36.6542 106.478 36.1402 106.276L35.4083 108.137ZM29.4302 102.561C28.9869 102.232 28.3605 102.324 28.0311 102.767C27.7016 103.211 27.7939 103.837 28.2372 104.166L29.4302 102.561ZM22.3741 98.4369C22.7143 98.872 23.3427 98.9489 23.7778 98.6087C24.2129 98.2685 24.2898 97.64 23.9496 97.2049L22.3741 98.4369ZM20.0048 90.5877C19.7809 90.0828 19.1901 89.855 18.6853 90.0789C18.1804 90.3028 17.9526 90.8936 18.1765 91.3984L20.0048 90.5877ZM15.6837 83.6417C15.7997 84.1817 16.3314 84.5254 16.8714 84.4094C17.4114 84.2935 17.7551 83.7618 17.6392 83.2218L15.6837 83.6417ZM16.7112 75.4655C16.7032 74.9133 16.249 74.4721 15.6968 74.4801C15.1446 74.4881 14.7034 74.9422 14.7114 75.4945L16.7112 75.4655ZM15.7157 67.2977C15.5665 67.8295 15.8767 68.3815 16.4084 68.5306C16.9402 68.6798 17.4922 68.3696 17.6413 67.8379L15.7157 67.2977ZM20.9267 60.9977C21.2502 60.55 21.1496 59.9249 20.702 59.6014C20.2544 59.2779 19.6293 59.3785 19.3058 59.8261L20.9267 60.9977ZM25.1908 54.0145C24.7433 54.3381 24.6429 54.9633 24.9665 55.4108C25.2902 55.8583 25.9153 55.9587 26.3629 55.6351L25.1908 54.0145ZM33.1438 51.8988C33.6533 51.6858 33.8937 51.1001 33.6807 50.5905C33.4677 50.081 32.8819 49.8406 32.3724 50.0536L33.1438 51.8988ZM40.1297 47.5499C39.593 47.6801 39.2634 48.2207 39.3935 48.7574C39.5236 49.2941 40.0642 49.6238 40.601 49.4936L40.1297 47.5499ZM48.3703 48.0911C48.9182 48.0221 49.3065 47.5219 49.2374 46.9739C49.1684 46.426 48.6682 46.0377 48.1203 46.1068L48.3703 48.0911ZM56.1626 45.4507C55.6108 45.4734 55.1818 45.9391 55.2045 46.4909C55.2272 47.0427 55.6929 47.4717 56.2447 47.449L56.1626 45.4507ZM64.1783 47.3975C64.7304 47.4117 65.1895 46.9756 65.2037 46.4235C65.2179 45.8714 64.7818 45.4123 64.2297 45.3981L64.1783 47.3975ZM72.2875 45.8347C71.7371 45.79 71.2546 46.2 71.2099 46.7505C71.1652 47.301 71.5753 47.7834 72.1257 47.8281L72.2875 45.8347ZM80.0202 48.6617C80.5679 48.7324 81.0692 48.3457 81.1399 47.7979C81.2106 47.2502 80.8239 46.7489 80.2762 46.6782L80.0202 48.6617ZM88.2266 47.8782C87.6823 47.7845 87.1651 48.1497 87.0714 48.694C86.9776 49.2382 87.3429 49.7555 87.8871 49.8492L88.2266 47.8782ZM95.7077 51.3546C96.248 51.4693 96.7789 51.1244 96.8937 50.5842C97.0084 50.0439 96.6635 49.513 96.1233 49.3982L95.7077 51.3546ZM103.954 51.2131C103.419 51.0787 102.876 51.4039 102.741 51.9396C102.607 52.4753 102.932 53.0185 103.468 53.153L103.954 51.2131ZM111.155 55.2287C111.686 55.3821 112.24 55.0763 112.394 54.5458C112.547 54.0152 112.241 53.4608 111.711 53.3074L111.155 55.2287ZM119.391 55.676C118.866 55.5039 118.301 55.7898 118.129 56.3145C117.957 56.8393 118.243 57.4043 118.768 57.5764L119.391 55.676ZM126.289 60.1954C126.807 60.3865 127.382 60.1215 127.573 59.6033C127.764 59.0852 127.499 58.5102 126.981 58.319L126.289 60.1954ZM134.463 61.2429C133.953 61.0318 133.368 61.2745 133.157 61.7849C132.946 62.2952 133.189 62.8801 133.699 63.0911L134.463 61.2429ZM140.985 66.2823C141.486 66.5147 142.08 66.2969 142.313 65.7959C142.545 65.2949 142.327 64.7004 141.826 64.468L140.985 66.2823ZM149.058 68.031C148.568 67.7748 147.964 67.9637 147.708 68.4529C147.452 68.9421 147.64 69.5465 148.13 69.8027L149.058 68.031ZM155.055 73.6758C155.529 73.9594 156.143 73.8052 156.427 73.3313C156.71 72.8574 156.556 72.2433 156.082 71.9597L155.055 73.6758ZM162.863 76.3378C162.411 76.0213 161.787 76.1317 161.471 76.5843C161.154 77.0369 161.265 77.6604 161.717 77.9769L162.863 76.3378ZM167.758 82.564C168.186 82.9135 168.816 82.8502 169.166 82.4226C169.515 81.995 169.452 81.365 169.024 81.0155L167.758 82.564ZM174.621 85.9433C174.222 85.5623 173.589 85.5774 173.208 85.9772C172.826 86.377 172.842 87.0099 173.241 87.391L174.621 85.9433ZM178.274 92.6541C178.635 93.072 179.267 93.1179 179.684 92.7568C180.102 92.3956 180.148 91.7641 179.787 91.3463L178.274 92.6541ZM184.338 97.2833C184.03 96.8246 183.409 96.7019 182.95 97.0095C182.491 97.317 182.369 97.9381 182.676 98.3969L184.338 97.2833ZM186.246 104.674C186.481 105.174 187.076 105.389 187.576 105.154C188.076 104.92 188.291 104.324 188.057 103.824L186.246 104.674ZM190.655 110.903C190.512 110.37 189.964 110.053 189.43 110.196C188.897 110.339 188.58 110.887 188.723 111.421L190.655 110.903ZM189.924 118.496C189.965 119.046 190.445 119.459 190.996 119.418C191.547 119.377 191.96 118.897 191.918 118.346L189.924 118.496ZM191.812 125.885C191.867 125.335 191.466 124.845 190.916 124.79C190.367 124.735 189.877 125.136 189.822 125.686L191.812 125.885ZM188.558 132.795C188.423 133.33 188.748 133.874 189.284 134.009C189.819 134.144 190.363 133.819 190.498 133.283L188.558 132.795ZM188.232 140.416C188.428 139.9 188.169 139.322 187.653 139.126C187.136 138.929 186.559 139.189 186.362 139.705L188.232 140.416ZM183.456 146.382C183.214 146.878 183.42 147.477 183.917 147.719C184.413 147.961 185.012 147.755 185.254 147.258L183.456 146.382ZM181.754 153.828C182.03 153.35 181.865 152.738 181.386 152.463C180.908 152.187 180.296 152.352 180.021 152.83L181.754 153.828ZM175.808 159.107C175.445 159.523 175.488 160.155 175.904 160.518C176.32 160.881 176.951 160.838 177.315 160.422L175.808 159.107ZM171.208 166.168C171.637 165.821 171.705 165.192 171.358 164.762C171.011 164.332 170.381 164.265 169.951 164.612L171.208 166.168ZM163.372 169.412C162.913 169.719 162.79 170.34 163.097 170.8C163.404 171.259 164.025 171.382 164.484 171.075L163.372 169.412ZM157.492 175.458C157.967 175.177 158.125 174.564 157.844 174.088C157.563 173.613 156.95 173.455 156.474 173.736L157.492 175.458ZM149.338 177.761C148.852 178.023 148.671 178.63 148.933 179.116C149.195 179.602 149.802 179.783 150.288 179.521L149.338 177.761ZM142.957 183.337C143.45 183.089 143.649 182.488 143.401 181.994C143.153 181.501 142.551 181.302 142.058 181.55L142.957 183.337ZM134.703 185.142C134.204 185.378 133.992 185.975 134.229 186.474C134.466 186.973 135.062 187.185 135.561 186.948L134.703 185.142ZM128.084 190.411C128.587 190.183 128.811 189.591 128.583 189.088C128.356 188.585 127.763 188.361 127.26 188.589L128.084 190.411ZM119.753 191.912C119.246 192.132 119.014 192.721 119.233 193.228C119.453 193.734 120.042 193.967 120.549 193.747L119.753 191.912ZM112.969 196.973C113.479 196.76 113.719 196.175 113.506 195.665C113.293 195.156 112.707 194.915 112.198 195.128L112.969 196.973ZM104.605 198.249C104.093 198.457 103.846 199.039 104.053 199.551C104.26 200.063 104.843 200.311 105.355 200.103L104.605 198.249ZM97.7044 203.152C98.2185 202.95 98.4717 202.369 98.2698 201.855C98.068 201.341 97.4877 201.088 96.9736 201.29L97.7044 203.152ZM89.3096 204.257C88.7937 204.454 88.5352 205.032 88.7323 205.548C88.9293 206.064 89.5073 206.323 90.0232 206.126L89.3096 204.257ZM82.3204 209.03C82.838 208.837 83.1014 208.261 82.9087 207.744C82.716 207.226 82.1402 206.963 81.6226 207.156L82.3204 209.03ZM73.9262 209.986C73.4071 210.175 73.1393 210.749 73.3279 211.268C73.5166 211.787 74.0903 212.055 74.6093 211.866L73.9262 209.986ZM66.8546 214.652C67.375 214.467 67.6471 213.895 67.4623 213.375C67.2775 212.854 66.7058 212.582 66.1853 212.767L66.8546 214.652ZM58.4233 215.492C57.9015 215.673 57.6254 216.243 57.8065 216.765C57.9876 217.287 58.5574 217.563 59.0791 217.382L58.4233 215.492ZM51.3001 220.052C51.8231 219.874 52.1033 219.306 51.9258 218.783C51.7483 218.26 51.1805 217.98 50.6575 218.158L51.3001 220.052ZM42.8866 220.763C42.3624 220.937 42.0781 221.503 42.2518 222.027C42.4254 222.551 42.9912 222.835 43.5155 222.662L42.8866 220.763ZM35.6577 225.229C36.1835 225.059 36.4726 224.496 36.3036 223.97C36.1345 223.445 35.5712 223.155 35.0454 223.325L35.6577 225.229ZM1.0002 3.99935C1.19782 4.97962 1.19779 4.97963 1.19776 4.97964C1.19776 4.97964 1.19774 4.97964 1.19774 4.97964C1.19774 4.97964 1.19776 4.97964 1.19781 4.97963C1.1979 4.97961 1.1981 4.97957 1.19839 4.97951C1.19897 4.97939 1.19995 4.9792 1.20131 4.97892C1.20405 4.97838 1.20835 4.97752 1.21419 4.97635C1.22588 4.97403 1.24376 4.97049 1.26771 4.96579C1.3156 4.95639 1.38774 4.94236 1.48313 4.92417C1.67391 4.88778 1.95762 4.83475 2.32618 4.76882C3.06333 4.63695 4.1396 4.45352 5.49015 4.24844L5.34003 3.25978L5.1899 2.27111C3.82038 2.47906 2.72673 2.66541 1.97399 2.80007C1.5976 2.86741 1.30637 2.92183 1.10844 2.95958C1.00948 2.97845 0.933826 2.99316 0.882511 3.00323C0.856854 3.00827 0.837279 3.01214 0.823913 3.0148C0.817231 3.01613 0.8121 3.01716 0.808538 3.01787C0.806757 3.01823 0.805368 3.01851 0.804373 3.01871C0.803875 3.01881 0.803476 3.01889 0.803176 3.01895C0.803026 3.01898 0.802901 3.019 0.8028 3.01902C0.80275 3.01903 0.802693 3.01905 0.802668 3.01905C0.802617 3.01906 0.802572 3.01907 1.0002 3.99935ZM14.0742 2.19135L14.1673 3.18701C16.8484 2.93632 19.8039 2.73225 22.8955 2.63837L22.8652 1.63883L22.8348 0.639287C19.6948 0.734645 16.6969 0.941765 13.9811 1.1957L14.0742 2.19135ZM31.6727 1.70761L31.6228 2.70637C34.5368 2.85202 37.4522 3.13493 40.2686 3.60048L40.4317 2.61386L40.5948 1.62725C37.6899 1.14707 34.6973 0.857549 31.7226 0.708861L31.6727 1.70761ZM48.9631 4.75727L48.6261 5.69877C50.0023 6.19135 51.3122 6.75215 52.5406 7.38776L53.0002 6.49961L53.4597 5.61147C52.1429 4.9301 50.7499 4.3347 49.3001 3.81577L48.9631 4.75727ZM53.0002 6.49961L52.5406 7.38776C53.6626 7.96833 54.7513 8.55544 55.8073 9.15048L56.2982 8.27927L56.7891 7.40806C55.7111 6.80065 54.6015 6.20227 53.4597 5.61147L53.0002 6.49961ZM62.647 12.2245L62.0794 13.0479C64.1728 14.4908 66.1041 15.9893 67.8818 17.5594L68.5438 16.8099L69.2058 16.0603C67.3625 14.4324 65.3673 12.8851 63.2145 11.4012L62.647 12.2245ZM73.7747 22.1479L73.0093 22.7915C74.5838 24.6636 75.9929 26.641 77.2459 28.7448L78.1051 28.2331L78.9642 27.7214C77.6553 25.5237 76.1833 23.4581 74.54 21.5042L73.7747 22.1479ZM81.4129 34.9323L80.4855 35.3062C81.3692 37.4979 82.1286 39.8185 82.7696 42.2853L83.7375 42.0338L84.7053 41.7823C84.0444 39.2386 83.2587 36.8357 82.3404 34.5583L81.4129 34.9323ZM85.2353 49.3554L84.2471 49.5087C84.6091 51.8412 84.8898 54.2897 85.0928 56.8648L86.0897 56.7862L87.0866 56.7076C86.8801 54.0878 86.594 51.589 86.2235 49.202L85.2353 49.3554ZM86.4577 64.2526L85.458 64.2752C85.4854 65.4915 85.499 66.733 85.499 68.0006L86.499 68.0006L87.499 68.0006C87.499 66.7188 87.4853 65.4622 87.4575 64.2301L86.4577 64.2526ZM86.499 68.0006L85.499 68.0006C85.499 69.3356 85.449 70.6389 85.3518 71.9101L86.3489 71.9864L87.346 72.0626C87.4471 70.7397 87.499 69.3856 87.499 68.0006L86.499 68.0006ZM85.0862 79.8381L84.1164 79.5941C83.4606 82.2003 82.587 84.6367 81.5287 86.9005L82.4346 87.324L83.3404 87.7475C84.4533 85.3671 85.3695 82.8103 86.0559 80.0821L85.0862 79.8381ZM78.3602 94.1406L77.5591 93.5421C75.9809 95.6545 74.2149 97.5507 72.3056 99.2255L72.965 99.9773L73.6244 100.729C75.6369 98.9638 77.4983 96.9652 79.1613 94.7391L78.3602 94.1406ZM66.4815 104.566L65.9914 103.695C63.7156 104.974 61.3315 106.002 58.8918 106.771L59.1924 107.724L59.493 108.678C62.0633 107.868 64.5745 106.786 66.9716 105.438L66.4815 104.566ZM51.4057 109.306L51.3118 108.31C48.7199 108.555 46.1282 108.514 43.5953 108.183L43.4656 109.175L43.336 110.166C46.0216 110.517 48.7634 110.56 51.4996 110.302L51.4057 109.306ZM35.7742 107.207L36.1402 106.276C33.7643 105.342 31.5081 104.105 29.4302 102.561L28.8337 103.364L28.2372 104.166C30.462 105.82 32.8741 107.141 35.4083 108.137L35.7742 107.207ZM23.1618 97.8209L23.9496 97.2049C22.4316 95.2636 21.1014 93.0604 20.0048 90.5877L19.0907 90.9931L18.1765 91.3984C19.338 94.0177 20.7523 96.3629 22.3741 98.4369L23.1618 97.8209ZM16.6615 83.4317L17.6392 83.2218C17.3745 81.9891 17.1572 80.7083 16.9909 79.3787L15.9986 79.5028L15.0064 79.627C15.1797 81.0124 15.4065 82.3506 15.6837 83.6417L16.6615 83.4317ZM15.9986 79.5028L16.9909 79.3787C16.8212 78.0227 16.7293 76.7187 16.7112 75.4655L15.7113 75.48L14.7114 75.4945C14.7307 76.8253 14.8282 78.2026 15.0064 79.627L15.9986 79.5028ZM16.6785 67.5678L17.6413 67.8379C18.3555 65.2919 19.4659 63.0188 20.9267 60.9977L20.1162 60.4119L19.3058 59.8261C17.7066 62.0386 16.4932 64.5256 15.7157 67.2977L16.6785 67.5678ZM25.7768 54.8248L26.3629 55.6351C28.3554 54.194 30.6261 52.9513 33.1438 51.8988L32.7581 50.9762L32.3724 50.0536C29.734 51.1566 27.3249 52.471 25.1908 54.0145L25.7768 54.8248ZM40.3654 48.5218L40.601 49.4936C43.0525 48.8993 45.6493 48.4339 48.3703 48.0911L48.2453 47.0989L48.1203 46.1068C45.3339 46.4578 42.6625 46.9359 40.1297 47.5499L40.3654 48.5218ZM56.2037 46.4499L56.2447 47.449C58.8165 47.3434 61.4661 47.3277 64.1783 47.3975L64.204 46.3978L64.2297 45.3981C61.4766 45.3274 58.7824 45.3431 56.1626 45.4507L56.2037 46.4499ZM72.2066 46.8314L72.1257 47.8281C74.7211 48.0388 77.3565 48.3179 80.0202 48.6617L80.1482 47.6699L80.2762 46.6782C77.5829 46.3305 74.916 46.048 72.2875 45.8347L72.2066 46.8314ZM88.0569 48.8637L87.8871 49.8492C90.4827 50.2962 93.0931 50.7992 95.7077 51.3546L95.9155 50.3764L96.1233 49.3982C93.4841 48.8376 90.8483 48.3298 88.2266 47.8782L88.0569 48.8637ZM103.711 52.183L103.468 53.153C106.04 53.7985 108.606 54.4915 111.155 55.2287L111.433 54.268L111.711 53.3074C109.138 52.5637 106.55 51.8645 103.954 51.2131L103.711 52.183ZM119.079 56.6262L118.768 57.5764C121.305 58.4088 123.816 59.2829 126.289 60.1954L126.635 59.2572L126.981 58.319C124.485 57.398 121.951 56.5159 119.391 55.676L119.079 56.6262ZM134.081 62.167L133.699 63.0911C136.184 64.1186 138.617 65.1836 140.985 66.2823L141.406 65.3751L141.826 64.468C139.432 63.357 136.973 62.2807 134.463 61.2429L134.081 62.167ZM148.594 68.9168L148.13 69.8027C150.533 71.0613 152.846 72.354 155.055 73.6758L155.568 72.8178L156.082 71.9597C153.838 70.6171 151.492 69.3059 149.058 68.031L148.594 68.9168ZM162.29 77.1573L161.717 77.9769C162.813 78.7434 163.872 79.5169 164.891 80.2967L165.499 79.5026L166.106 78.7085C165.064 77.9104 163.982 77.1199 162.863 76.3378L162.29 77.1573ZM165.499 79.5026L164.891 80.2967C165.879 81.0529 166.834 81.8086 167.758 82.564L168.391 81.7897L169.024 81.0155C168.083 80.2462 167.111 79.4772 166.106 78.7085L165.499 79.5026ZM173.931 86.6672L173.241 87.391C175.082 89.1459 176.758 90.8998 178.274 92.6541L179.031 92.0002L179.787 91.3463C178.226 89.5396 176.505 87.7393 174.621 85.9433L173.931 86.6672ZM183.507 97.8401L182.676 98.3969C184.076 100.485 185.262 102.577 186.246 104.674L187.151 104.249L188.057 103.824C187.027 101.63 185.79 99.4508 184.338 97.2833L183.507 97.8401ZM189.689 111.162L188.723 111.421C189.35 113.762 189.746 116.118 189.924 118.496L190.921 118.421L191.918 118.346C191.731 115.846 191.314 113.366 190.655 110.903L189.689 111.162ZM190.817 125.785L189.822 125.686C189.588 128.027 189.163 130.395 188.558 132.795L189.528 133.039L190.498 133.283C191.124 130.797 191.567 128.332 191.812 125.885L190.817 125.785ZM187.297 140.06L186.362 139.705C185.526 141.903 184.555 144.128 183.456 146.382L184.355 146.82L185.254 147.258C186.376 144.956 187.372 142.676 188.232 140.416L187.297 140.06ZM180.887 153.329L180.021 152.83C179.42 153.874 178.795 154.923 178.146 155.98L178.999 156.503L179.851 157.026C180.509 155.955 181.143 154.889 181.754 153.828L180.887 153.329ZM178.999 156.503L178.146 155.98C177.523 156.995 176.742 158.038 175.808 159.107L176.561 159.765L177.315 160.422C178.307 159.286 179.159 158.153 179.851 157.026L178.999 156.503ZM170.58 165.39L169.951 164.612C167.995 166.191 165.791 167.794 163.372 169.412L163.928 170.243L164.484 171.075C166.942 169.43 169.196 167.792 171.208 166.168L170.58 165.39ZM156.983 174.597L156.474 173.736C154.209 175.076 151.824 176.419 149.338 177.761L149.813 178.641L150.288 179.521C152.794 178.168 155.202 176.812 157.492 175.458L156.983 174.597ZM142.507 182.444L142.058 181.55C139.668 182.752 137.212 183.95 134.703 185.142L135.132 186.045L135.561 186.948C138.082 185.751 140.552 184.546 142.957 183.337L142.507 182.444ZM127.672 189.5L127.26 188.589C124.788 189.707 122.282 190.815 119.753 191.912L120.151 192.83L120.549 193.747C123.086 192.646 125.602 191.534 128.084 190.411L127.672 189.5ZM112.583 196.051L112.198 195.128C109.673 196.184 107.138 197.225 104.605 198.249L104.98 199.176L105.355 200.103C107.895 199.076 110.437 198.032 112.969 196.973L112.583 196.051ZM97.339 202.221L96.9736 201.29C94.4006 202.3 91.8418 203.29 89.3096 204.257L89.6664 205.191L90.0232 206.126C92.5609 205.156 95.1254 204.164 97.7044 203.152L97.339 202.221ZM81.9715 208.093L81.6226 207.156C79.0078 208.129 76.4373 209.074 73.9262 209.986L74.2678 210.926L74.6093 211.866C77.1251 210.952 79.7004 210.005 82.3204 209.03L81.9715 208.093ZM66.52 213.709L66.1853 212.767C63.4938 213.723 60.8992 214.633 58.4233 215.492L58.7512 216.437L59.0791 217.382C61.5592 216.521 64.1583 215.609 66.8546 214.652L66.52 213.709ZM50.9788 219.105L50.6575 218.158C47.808 219.124 45.2016 219.996 42.8866 220.763L43.2011 221.713L43.5155 222.662C45.8347 221.894 48.4458 221.02 51.3001 220.052L50.9788 219.105Z" fill="#1A5186"/>
</svg>
