<svg width="155" height="155" viewBox="0 0 155 155" fill="none" xmlns="http://www.w3.org/2000/svg">
<path d="M39.9167 2C44.25 2 61.5833 41 61.5833 45.3333C61.5833 54 48.5833 62.6667 44.25 71.3333C39.9167 80 48.5833 88.6667 57.25 97.3333C60.63 100.713 74.5833 114.667 83.25 110.333C91.9167 106 100.583 93 109.25 93C113.583 93 152.583 110.333 152.583 114.667C152.583 132 139.583 145 126.583 149.333C113.583 153.667 104.917 153.667 87.5833 149.333C70.25 145 57.25 140.667 35.5833 119C13.9167 97.3333 9.58333 84.3333 5.25 67C0.916667 49.6667 0.916667 41 5.25 28C9.58333 15 22.5833 2 39.9167 2Z" fill="#0077FF" stroke="white" stroke-width="3" stroke-linecap="round" stroke-linejoin="round"/>
</svg>
