<svg width="30" height="30" viewBox="0 0 30 30" fill="none" xmlns="http://www.w3.org/2000/svg">
<path d="M22.4999 22.5C22.9971 22.5 23.474 22.3025 23.8257 21.9508C24.1773 21.5992 24.3749 21.1223 24.3749 20.625V16.0462C24.3749 15.549 24.1773 15.0721 23.8257 14.7204C23.474 14.3688 22.9971 14.1713 22.4999 14.1713H19.8974C19.8974 13.5125 19.9361 12.8538 20.0136 12.195C20.1299 11.4975 20.3236 10.8775 20.5949 10.335C20.8661 9.7925 21.2155 9.36562 21.643 9.05437C22.068 8.70563 22.6105 8.53125 23.2705 8.53125V5.625C22.1855 5.625 21.2355 5.8575 20.4205 6.3225C19.6111 6.78164 18.9157 7.41742 18.3861 8.1825C17.8529 9.02466 17.4602 9.94797 17.2236 10.9163C16.9843 11.9845 16.8673 13.0765 16.8749 14.1713V20.625C16.8749 21.1223 17.0724 21.5992 17.424 21.9508C17.7757 22.3025 18.2526 22.5 18.7499 22.5H22.4999ZM11.2499 22.5C11.7471 22.5 12.224 22.3025 12.5757 21.9508C12.9273 21.5992 13.1249 21.1223 13.1249 20.625V16.0462C13.1249 15.549 12.9273 15.0721 12.5757 14.7204C12.224 14.3688 11.7471 14.1713 11.2499 14.1713H8.64735C8.64735 13.5125 8.6861 12.8538 8.7636 12.195C8.8811 11.4975 9.07485 10.8775 9.34485 10.335C9.6161 9.7925 9.96548 9.36562 10.393 9.05437C10.818 8.70563 11.3605 8.53125 12.0205 8.53125V5.625C10.9355 5.625 9.98548 5.8575 9.17048 6.3225C8.36112 6.78164 7.66574 7.41742 7.1361 8.1825C6.60287 9.02466 6.21024 9.94797 5.9736 10.9163C5.73432 11.9845 5.61732 13.0765 5.62485 14.1713V20.625C5.62485 21.1223 5.8224 21.5992 6.17403 21.9508C6.52566 22.3025 7.00257 22.5 7.49985 22.5H11.2499Z" fill="#FBFDFF"/>
</svg>
