<svg width="31" height="30" viewBox="0 0 31 30" fill="none" xmlns="http://www.w3.org/2000/svg">
<path d="M22.763 22.5C23.2603 22.5 23.7372 22.3025 24.0889 21.9508C24.4405 21.5992 24.638 21.1223 24.638 20.625V16.0462C24.638 15.549 24.4405 15.0721 24.0889 14.7204C23.7372 14.3688 23.2603 14.1713 22.763 14.1713H20.1605C20.1605 13.5125 20.1993 12.8538 20.2768 12.195C20.393 11.4975 20.5868 10.8775 20.858 10.335C21.1293 9.7925 21.4787 9.36562 21.9062 9.05437C22.3312 8.70563 22.8737 8.53125 23.5337 8.53125V5.625C22.4487 5.625 21.4987 5.8575 20.6837 6.3225C19.8743 6.78164 19.1789 7.41742 18.6493 8.1825C18.1161 9.02466 17.7234 9.94797 17.4868 10.9163C17.2475 11.9845 17.1305 13.0765 17.138 14.1713V20.625C17.138 21.1223 17.3356 21.5992 17.6872 21.9508C18.0388 22.3025 18.5158 22.5 19.013 22.5H22.763ZM11.513 22.5C12.0103 22.5 12.4872 22.3025 12.8389 21.9508C13.1905 21.5992 13.388 21.1223 13.388 20.625V16.0462C13.388 15.549 13.1905 15.0721 12.8389 14.7204C12.4872 14.3688 12.0103 14.1713 11.513 14.1713H8.91054C8.91054 13.5125 8.94929 12.8538 9.02679 12.195C9.14429 11.4975 9.33804 10.8775 9.60804 10.335C9.87929 9.7925 10.2287 9.36562 10.6562 9.05437C11.0812 8.70563 11.6237 8.53125 12.2837 8.53125V5.625C11.1987 5.625 10.2487 5.8575 9.43366 6.3225C8.6243 6.78164 7.92892 7.41742 7.39929 8.1825C6.86606 9.02466 6.47343 9.94797 6.23679 10.9163C5.99751 11.9845 5.8805 13.0765 5.88804 14.1713V20.625C5.88804 21.1223 6.08558 21.5992 6.43721 21.9508C6.78884 22.3025 7.26576 22.5 7.76304 22.5H11.513Z" fill="#1A5186"/>
</svg>
