<svg width="24" height="24" viewBox="0 0 24 24" fill="none" xmlns="http://www.w3.org/2000/svg">
<path d="M0.100098 11.8919C0.0995154 13.9876 1.13586 16.7418 2.18177 18.5455L1.09086 22.9091L5.4545 21.8182C7.20666 22.7677 10.0503 23.7935 12.0453 23.7937H12.0505C18.6363 23.7937 23.9973 18.4587 24.0001 11.9012C24.0013 8.7237 22.7594 5.73575 20.5031 3.48778C18.2472 1.24 15.2468 0.00145018 12.05 0C5.46349 0 0.102817 5.33473 0.100098 11.8919Z" fill="url(#paint0_linear_229_84)"/>
<path d="M9.06012 6.06273C8.79872 5.48448 8.52362 5.47281 8.27503 5.46267C8.07147 5.45395 7.83877 5.4546 7.60629 5.4546C7.37359 5.4546 6.99551 5.54173 6.67593 5.88903C6.35603 6.23665 5.45459 7.07671 5.45459 8.7853C5.45459 10.4939 6.70497 12.1452 6.87927 12.3771C7.0538 12.6086 9.29315 16.2271 12.8397 17.6191C15.7873 18.776 16.3871 18.5459 17.0268 18.4879C17.6666 18.4301 19.0913 17.648 19.3819 16.8371C19.6728 16.0262 19.6728 15.3312 19.5856 15.186C19.4984 15.0413 19.2657 14.9544 18.9168 14.7808C18.5678 14.6072 16.8523 13.7669 16.5325 13.651C16.2126 13.5352 15.98 13.4774 15.7473 13.8251C15.5146 14.1723 14.8464 14.9544 14.6427 15.186C14.4393 15.4181 14.2356 15.447 13.8868 15.2733C13.5376 15.0991 12.4139 14.7328 11.0807 13.5498C10.0434 12.6293 9.34311 11.4925 9.13955 11.1448C8.93599 10.7976 9.11775 10.6094 9.29271 10.4363C9.44949 10.2807 9.64176 10.0308 9.81639 9.82807C9.99037 9.62525 10.0484 9.48055 10.1648 9.24894C10.2812 9.01712 10.223 8.8143 10.1359 8.6406C10.0484 8.46689 9.37039 6.74937 9.06012 6.06273Z" fill="white"/>
<defs>
<linearGradient id="paint0_linear_229_84" x1="1200" y1="2400" x2="1200" y2="0" gradientUnits="userSpaceOnUse">
<stop stop-color="#1FAF38"/>
<stop offset="1" stop-color="#60D669"/>
</linearGradient>
</defs>
</svg>
